<svg xmlns="http://www.w3.org/2000/svg" viewBox="0 0 1200 120.07"><defs><style>.cls-1{fill:#fff;}</style></defs><g id="Capa_2" data-name="Capa 2"><g id="Layer_1" data-name="Layer 1"><path class="cls-1" d="M1012.28.28a30,30,0,0,1,7.57-.06c1.53,1.12.56,3.2.72,4.79-.17,18.37,0,36.75-.07,55.13,8.57-8.32,16.72-17.13,25.51-25.2,3.72-.35,7.47-.1,11.2-.1-8.42,9.15-18.25,16.92-26.93,25.84Q1045.22,76,1060.36,91c-4.14,0-8.93,1.3-12.67-.71-9.07-9.32-17.79-19-26.88-28.3-.72,9.7-.06,19.45-.36,29.18-2.62-.4-6.58,1.46-8.14-1.38C1012.18,60,1012.25,30.12,1012.28.28Z"/><path class="cls-1" d="M115.48,5.73A42.56,42.56,0,0,1,149,12.07a43.56,43.56,0,0,1,18.55,30.82c1.26,11.93-1.76,24.63-9.61,33.9S138.25,92.31,126,92.32A42.06,42.06,0,0,1,96.18,80.78,44,44,0,0,1,82.47,48C82.23,28.62,96.42,9.92,115.48,5.73Zm3.91,15a28.13,28.13,0,0,0-18.23,13.55,29.45,29.45,0,0,0,1.18,30.44c5,7.93,14.47,12.24,23.67,12.38,9.79-.15,18.72-6.49,23.41-14.87a29.12,29.12,0,0,0-4.29-33.38C138.72,21.93,128.63,18.48,119.39,20.69Z"/><path class="cls-1" d="M303.5,5.66a43,43,0,0,1,36.18,8.65c17.69,14.06,20.93,42.11,7.61,60.19-6.19,8.28-15.18,14.69-25.38,16.84a42.06,42.06,0,0,1-35.09-8,44.42,44.42,0,0,1-16.66-32.21C268.51,30.61,283.12,9.84,303.5,5.66Zm3,15.11C294,23.72,284.44,36.14,285.22,49.09c-.48,15.24,13.65,28.84,28.87,27.72,16.23-.3,29-17,26.06-32.79C338.23,28.6,321.75,16.67,306.51,20.77Z"/><path class="cls-1" d="M0,5.83c5-.06,10-.09,15,0,.11,11.45,0,22.9.05,34.34,9.33.2,18.66,0,28,.11,1.53-.1,3.18.19,4.63-.42.34-11.34,0-22.69.14-34,4.92-.09,9.85-.14,14.76.05q0,42.69,0,85.39c-4.9,0-9.8,0-14.7-.05-.22-11.65.19-23.32-.2-35-1.3-.89-3.07-.34-4.55-.51-9.35.1-18.7-.09-28,.11-.08,11.41.16,22.83-.11,34.24-.24.26-.73.77-1,1-4.61.1-9.42.73-13.91-.54Z"/><path class="cls-1" d="M187.71,5.79c3.44,0,6.89-.12,10.33.07,1.72-.07,2.66,1.56,3.54,2.77,10.2,15.32,20.59,30.51,30.84,45.8.85,1.24,1.81,2.39,2.78,3.57.1-16,0-32,0-48,.08-1.36-.28-2.93.75-4,4.68-.41,9.4-.15,14.11-.11.38,28.44.06,56.89.16,85.34-3.44.06-6.89.2-10.32,0-1.41.07-2.25-1.22-3-2.18-11.4-16.94-22.68-34-34.35-50.72-.2,17.64.07,35.28-.14,52.92-4.87.1-9.74.07-14.62,0C187.64,62.77,187.84,34.28,187.71,5.79Z"/><path class="cls-1" d="M375.27,6c6.59-.43,13.2-.09,19.8-.19,8.3.19,17.33-1.19,24.77,3.43,13.46,7.14,18,25.92,10.22,38.8-3.28,5.67-8.77,9.61-14.61,12.36,8.29,10.33,16.73,20.53,25,30.88-6.49,0-13,.06-19.47,0-10.25-12.24-20-24.87-30.35-37-.83,12.31-.14,24.68-.37,37-5,0-10,.26-14.94-.13C375.18,62.72,375.26,34.35,375.27,6Zm15.18,15.54c-.44,8.09-.14,16.24-.13,24.35,6.25.23,12.55.59,18.79-.07,5.12-.9,8.92-5.55,9.52-10.61C419.76,28.36,414,21.25,407,21.3,401.5,21.4,395.94,21,390.45,21.52Z"/><path class="cls-1" d="M490,5.89c4.3.08,8.79-.66,13,.36,9.84,22.83,18.17,46.34,28.08,69.14,9.71-23,18.38-46.42,27.88-69.5,4.31-.15,8.64-.19,13,0q.24,42.63,0,85.26c-2.8-.44-7,1.73-8.75-1.12.14-23.82.24-47.67,0-71.49-8.22,18.56-15.36,37.61-23.19,56.35-2.37,5.43-4.12,11.16-7,16.35-1.27,0-2.52,0-3.78.07A58.65,58.65,0,0,1,525,82.21C516.21,60.8,507.65,39.32,498.81,18c-.13,23.36,0,46.73-.05,70.09a15.19,15.19,0,0,1-.48,3.28c-2.63-.57-6.38,1.21-8.21-1.2C489.9,62.05,490.05,34,490,5.89Z"/><path class="cls-1" d="M803.5,36.09c.1-10.08-.22-20.17.17-30.24,8.12-.11,16.24-.07,24.37,0,7.56.12,15.56,1.7,21.5,6.69,5.34,4.82,6.52,12.77,5.27,19.55s-7.07,12.23-13.66,14.13c4.66.78,9.32,2.64,12.59,6.17,5.77,5.92,6.8,15.21,4.41,22.86C854.58,85,844,90.2,834.17,91c-10.12.58-20.28.29-30.42.21C803.16,72.84,803.66,54.45,803.5,36.09Zm8.86-21.89c-.26,9.58-.05,19.17-.09,28.76,8.83.06,18.26,1.58,26.64-1.9,8.72-3.51,10.34-16.48,3.75-22.7a21.15,21.15,0,0,0-13.74-4.58c-5.31.15-10.62-.55-15.93-.15Zm-.08,36.37c-.08,10.9,0,21.79,0,32.69,4.9.58,9.86.14,14.79.29,6,.15,12.27-.81,17.36-4.19,9.31-5.81,8-22.23-2.18-26.43C832.75,48.9,822.23,50.84,812.28,50.57Z"/><path class="cls-1" d="M1110.91,7.88c2.53-2.67,6.57-2.43,9.87-1.75.88,1.84.12,3.93.25,5.89-.1,26.39,0,52.79-.08,79.18a66,66,0,0,1-7.17,0c-1.39-.3-1.29-2.07-1.3-3.12-.07-23.62.22-47.24-.15-70.85-4.69,3.72-9.08,7.79-13.6,11.71l-2.47-.26c-1.29-1.6-2.62-3.16-3.91-4.74C1098.18,18.21,1104.82,13.36,1110.91,7.88Z"/><path class="cls-1" d="M1175.36,8.38c2.54-4.46,8.44-2,12.59-2.51.13,18.93,0,37.86.08,56.79,4,.29,8,.29,12,.35v7.5c-4,0-8-.12-11.92.29-.17,6.83,0,13.67-.08,20.5-2.73,0-5.45,0-8.16-.1-.19-6.82-.06-13.64-.09-20.46-12.61-.46-25.23-.06-37.84-.21-.52-4.27-.17-8.76,2.28-12.41C1154.7,41.61,1165,25,1175.36,8.38Zm4.39,7.58q-14.43,23.26-28.6,46.68c9.51.32,19,.09,28.57.12C1179.79,47.16,1179.72,31.56,1179.75,16Z"/><path class="cls-1" d="M722.28,8.26c3.53-2.33,9,.42,8.75,4.82.4,4-4.25,7.29-7.9,5.63C719,17.1,718.41,10.51,722.28,8.26Z"/><path class="cls-1" d="M589.94,41a31.26,31.26,0,0,1,29.65-6.35c7.22,1.79,12.49,8.67,12.85,16,.38,13.51-.67,27.1,1.09,40.54-2.19.09-4.37.12-6.55.14-1.72-2.56-1.36-5.72-1.55-8.64-3.38,4-7.39,7.83-12.63,9.16-6.77,1.88-14.59,1.08-20.4-3-6.43-4.7-7.7-14.06-4.52-21,1.72-4.31,6.13-6.7,10.24-8.3,8.58-2.88,17.79-2.57,26.73-3,.69-5.53-1.29-12.12-6.74-14.55-8.14-3.51-17.69-.68-24.13,5C592.58,45,590.27,43.41,589.94,41Zm8.58,26.58c-5.49,3.57-5.07,13.1.73,16.14,7.3,4.15,17.77,2.12,22.34-5.13,3-4.26,3.47-9.62,3.5-14.68-2.5-1.4-5.42-.7-8.12-.6C610.7,63.81,604,64.07,598.52,67.53Z"/><path class="cls-1" d="M658.83,37.78c11.2-7.88,28.72-5.32,36.39,6.27,0-3,0-6,.07-9,2.61,0,5.89-1,8.13.34.2,18.54,0,37.09.1,55.63.19,8.07-2.53,16.52-8.5,22.15-5.88,5.45-14.3,7-22.06,6.9-9.62.12-18.9-4.33-25.64-11a32.65,32.65,0,0,1,5.66-6.53c5,5.43,11.74,9.67,19.3,10.13,7.13.5,15.44-1.43,19.39-8,4.7-7,3.49-15.8,3.51-23.79-3.63,4.27-8.09,8.08-13.66,9.43-9.14,2.34-19.64.48-26.69-6C641.57,72.08,643.3,47.32,658.83,37.78Zm11.69,3.07a19.82,19.82,0,0,0-14.74,13.93c-2.06,7.32-1.36,15.9,3.6,22,7,9.18,22,9.76,30.28,1.94,8.08-7.63,8.91-21.6,1.88-30.19A20.54,20.54,0,0,0,670.52,40.85Z"/><path class="cls-1" d="M753.66,39.82c9.38-7.93,24.11-8.78,34.33-2,2,1.59,4.75,3.16,4.65,6-1.85,1.27-3.65,2.59-5.44,3.94-6-8.82-19.53-9.84-27.34-3-8,7.16-10.12,19.84-5.21,29.35A20.11,20.11,0,0,0,778.08,85c4.06-.85,7-3.9,9.91-6.69q3,2.3,6,4.63c-8.8,12-27.56,12.64-39,4.27C740,76.47,739.65,51.44,753.66,39.82Z"/><path class="cls-1" d="M894.48,33.78c9.24-1.64,19.55.68,26.24,7.52,9.7,9.29,11.1,25,5.29,36.75-7.86,14.83-29.28,19.2-42.88,9.81-8.42-5.62-12.7-16-12.6-25.92a31.7,31.7,0,0,1,9.31-21.14A27.17,27.17,0,0,1,894.48,33.78Zm-2.05,7.92c-14.19,5.67-17.2,26.29-7.38,37.23,7.45,9,23.21,8.78,30.43-.4C923.37,69,922.61,53.09,913,45,907.45,40.19,899.26,39.21,892.43,41.7Z"/><path class="cls-1" d="M962.61,33.85c8.8-1.63,18.53.25,25.42,6.17,12.5,10.55,13.5,31.66,2.46,43.6-11.19,12.41-33.4,12.13-44.14-.73-7.27-8.46-8.69-21-5-31.26A28.06,28.06,0,0,1,962.61,33.85Zm2,6.92a19.75,19.75,0,0,0-12.87,8.84c-3.51,5.72-4.28,12.83-3,19.34,1.52,8.07,8.24,15,16.42,16.24A20.24,20.24,0,0,0,983,80c7-7.6,8.9-19.67,3.62-28.74C982.8,43.2,973.14,38.77,964.58,40.77Z"/><path class="cls-1" d="M721.28,34.92c2.64-.16,5.3-.15,8-.14.59,14.38.08,28.8.25,43.2-.09,4.4.24,8.82-.26,13.21-2.57-.4-6.57,1.71-8.12-1.16C721.41,71.66,721.14,53.29,721.28,34.92Z"/></g></g></svg>